#!OML:ASF F:\VICON\USERDATA\INSTALL\rory3\rory3.ASF
:FULLY-SPECIFIED
:DEGREES
29
root -1.349290229821954 17.342755150435273 -2.53913893828053 5.373041952229107 3.341773884119481 2.562278060821509
lfemur -14.715640098834491 1.4417968414120335 -26.882018170143237
ltibia 50.81194173167277
lfoot -18.484975813461215 0.5563356683599157
ltoes -20.352404413125527
rfemur -41.498952936243064 -5.120238729275429 20.371833170616
rtibia 109.91036591817709
rfoot 10.195235858366306 -4.9460875149716585
rtoes 5.57675082173329
lowerback 1.0 0.3788851529056789 -2.499766278427867
upperback 0.1522687995193247 0.19858194061649637 0.07896059478787842
thorax -9.041562479355274 0.21740022373940238 1.8235838495368024
lowerneck -21.22948249307801 -4.6036472106877255 -1.5531026567547008
upperneck 13.381429304333029 -6.790069651824969 4.696655970442371
head 8.02816270100442 -2.7417577059375398 0.8998772733513283
lclavicle -2.3380469227515645e-15 -1.1610759130678164e-15
lhumerus -39.94315255955138 -9.845210271197846 90.63517234063312
lradius 116.74533953209378
lwrist 36.3113492841812
lhand -29.58719786039062 1.226483537968964
lfingers 7.12502
lthumb -3.0552262242530626 30.227459302026546
rclavicle -1.3264653547663176e-15 -1.7598058626613797e-16
rhumerus -52.53643253767015 9.404929778132342 -97.20639917524429
rradius 97.63046031910925
rwrist -24.117666903269004
rhand -18.177242804003246 1.0
rfingers 7.12502
rthumb 8.423257456084885 9.670260292258853
30
root -1.3183868569176296 17.58185556457142 -1.5213060087120454 5.353175241831002 2.2852193255974953 3.1298020311626895
lfemur -10.422978111279642 1.5339874284246315 -27.618993308032096
ltibia 47.814148988560746
lfoot -12.490490120029996 -3.60086143031031
ltoes -24.571610450432537
rfemur -43.57218478807338 -3.7902274414766977 20.293576234475655
rtibia 103.62601712644226
rfoot 7.784338178147192 -5.130270623261515
rtoes 6.8820640104152115
lowerback 1.0 0.07760118435798702 -3.222008499531604
upperback -0.06472193956690836 -0.26616499220933365 0.07028016877088605
thorax -8.980660907562159 0.0022781387416433985 2.1258937958120927
lowerneck -21.63350397709128 -4.285714816925675 -1.5398896377596938
upperneck 13.925210541205214 -6.299023822988826 4.459203347444997
head 8.149980370400986 -2.5551887648803935 0.8729361975613503
lclavicle 2.758386686255295e-15 2.7342733856469743e-15
lhumerus -39.633248041984245 -9.504884138884712 90.17236837659405
lradius 120.07112143853561
lwrist 36.43724197854421
lhand -29.360036765501366 1.3150578831575794
lfingers 7.12502
lthumb -2.8829891603810642 30.405184579541174
rclavicle 2.2366469078150035e-15 2.818699799721073e-15
rhumerus -54.95348422331761 9.406227909392403 -97.04193320389166
rradius 100.59049947788664
rwrist -24.892843942396766
rhand -18.027986076954388 1.0
rfingers 7.12502
rthumb 8.705693821161994 10.161550747887887
31
root -1.2269708446221417 17.866669491755058 0.36124211785222204 5.177258905520622 -0.45283073195876866 2.445122273823567
lfemur -6.204177352234844 2.5792385131383444 -27.167113703999398
ltibia 43.62222074085969
lfoot -2.614403821179633 -7.671876056320893
ltoes -24.5900837461968
rfemur -44.601403128163746 -0.4924112029879928 21.45668728156412
rtibia 95.49106569120379
rfoot 5.42638616463284 -5.576765371146569
rtoes 5.009293371611643
lowerback 1.0 0.29512822663919314 -2.912411460508625
upperback -0.15257386201058665 -0.12955848835803763 0.23473142830529525
thorax -8.980542000705682 0.0828317523677995 2.2438429502387374
lowerneck -21.348431191993882 -3.8741910727889457 -1.5496917209373362
upperneck 14.331222894297937 -5.626926745742065 4.220001085201103
head 8.170898881408696 -2.2917643744120495 0.8763587480690118
lclavicle 2.802701975993707e-15 3.0414261529396256e-15
lhumerus -39.763756264249295 -9.376031098122569 89.94352909820208
lradius 122.52983916343763
lwrist 36.34574194884172
lhand -28.894966548088302 0.2523757704562959
lfingers 7.12502
lthumb -2.3767649189562685 29.813063929048504
rclavicle 1.9543814538460718e-15 2.8614587979894894e-15
rhumerus -56.95170386073989 9.672834167440683 -96.87187282976316
rradius 102.85414422887564
rwrist -25.26085720833161
rhand -17.953372766598015 1.0
rfingers 7.12502
rthumb 8.9000671027544 10.56776552109557
32
root -1.1511593052948368 18.102937590496882 1.4779847678861717 4.963880172184846 -2.7173411579600635 2.2413932059365567
lfemur -2.546710119159439 2.802932150435454 -27.384856940270055
ltibia 38.80347667621942
lfoot 7.96768627360599 -11.639534446302658
ltoes -27.493207205125998
rfemur -44.023405000653945 1.494220992347878 22.22155181954148
rtibia 85.66363025514222
rfoot 4.0678689905253265 -6.013663270097842
rtoes 4.122155016350861
lowerback 1.0 0.3974935254255435 -2.878924580138777
upperback -0.3257670210536562 -0.018577376728868167 0.538932402588747
thorax -8.91078065894569 0.13236214106254618 2.2280276317325534
lowerneck -21.05290326460134 -3.612695015231173 -1.6340808686319013
upperneck 14.778793882779253 -5.149359579784834 3.950944575230364
head 8.18007188088731 -2.115421079592899 0.8685120676831276
lclavicle 2.0603564519094927e-15 3.2310005661183552e-15
lhumerus -40.1158899277268 -9.528248814828842 89.91531317187481
lradius 124.02788204200448
lwrist 36.123285247864565
lhand -28.14871215115746 -2.036762001259781
lfingers 7.12502
lthumb -1.4346503300833537 28.701341098392092
rclavicle 1.0160961094736722e-15 2.970038781129173e-15
rhumerus -58.742472999246544 9.925985982434776 -96.60444677884577
rradius 104.4133972828045
rwrist -25.23626404453842
rhand -17.707357364528768 1.0
rfingers 7.12502
rthumb 9.207200299308585 11.378960270209124
33
root -1.102861280014337 18.30018028997624 2.86164425932475 5.342783335460494 -3.517898017917976 2.725366042462155
lfemur 0.7537721811419793 1.7534965293612421 -28.156179699358994
ltibia 33.94582859767648
lfoot 17.965720306812603 -14.253765105895383
ltoes -30.761894246085557
rfemur -43.666156673153644 2.226708099986454 22.288756484174886
rtibia 75.19421530494985
rfoot 3.475024332583232 -6.043531705464842
rtoes 1.7904905115252159
lowerback 1.0 0.16167692086439578 -3.1981798759485707
upperback -0.6107874870439973 -0.39143081768345644 0.6019356613551639
thorax -8.953959429417745 -0.07071625290878492 2.1899420618690524
lowerneck -20.59083677129033 -3.3106357723500253 -1.7075379884017279
upperneck 15.413689925612376 -4.624157334703383 3.651644635653158
head 8.220455306781261 -1.916456193022955 0.8541921512037269
lclavicle 5.170914353833409e-18 1.9158304505329613e-15
lhumerus -40.538728007760724 -9.874905040584931 90.09589398378482
lradius 124.68265497194173
lwrist 35.957806051122844
lhand -27.988261418264972 -3.078241525330929
lfingers 7.12502
lthumb -1.4382831765014492 27.270708469465742
rclavicle -3.7976577599192566e-16 1.8184196284823816e-15
rhumerus -60.24225690159051 9.806178927346053 -96.19174183631175
rradius 105.37811391648503
rwrist -24.61795257244355
rhand -17.84581516332627 1.0
rfingers 7.12502
rthumb 8.926207797551095 10.915843211615446
34
root -1.0896678871229892 18.441328082056657 3.7197821938524003 5.6386985682327095 -2.9972308867200077 3.124563834474215
lfemur 3.4411923001518367 -0.29893507771534056 -29.016058512491608
ltibia 29.934618702146043
lfoot 25.01875473602014 -16.176678736303483
ltoes -25.987825545058875
rfemur -43.046520323390574 2.0235956709962624 22.13701106875928
rtibia 64.94662502052668
rfoot 3.076286620444396 -5.636018483644302
rtoes -0.7704551712259744
lowerback 1.0 -0.3700352993877697 -3.3426492278999196
upperback -0.9379798762936127 -1.0911677377645042 0.6698460312100096
thorax -9.096648969324999 -0.42122503822459034 2.4735172391953886
lowerneck -20.25484800293696 -3.001719354964928 -1.6870057791122437
upperneck 16.072437671397577 -4.130137717000606 3.2614477608251233
head 8.304838536380794 -1.7446179923962346 0.795653636283255
lclavicle -1.8624579471600844e-15 -6.375514760847433e-16
lhumerus -41.15921781049458 -10.47045451105917 90.48487918276881
lradius 124.67359301160884
lwrist 35.795416868160515
lhand -28.14240324611417 -3.946191446549424
lfingers 7.12502
lthumb -1.4825201912114334 27.160769625994096
rclavicle -1.6477114182079919e-15 -8.749769803219685e-16
rhumerus -61.36857832890953 9.482877776338517 -95.71652223901197
rradius 106.02597445943337
rwrist -23.476958935353174
rhand -17.893597071123224 1.0
rfingers 7.12502
rthumb 9.069179797305193 11.0576759020806
